<svg xmlns="http://www.w3.org/2000/svg" version="1.1" xmlns:xlink="http://www.w3.org/1999/xlink" xmlns:svgjs="http://svgjs.dev/svgjs" width="100%" height="100%" viewBox="0 0 1000 600"><rect width="1000" height="600" x="0" y="0" fill="#e2d3f4"/><g><rect width="333.3333333333333" height="333.3333333333333" rx="13.333333333333334" ry="13.333333333333334" y="245.67482432882753" fill="#013dc4" transform="matrix(0.5594025951216549,0,0,0.5594025951216548,0,69.33507212546142)" x="223.45256042480474"/><path d="M417.2198201699601 442.41952880516396L417.2198201699601 337.3414778486299L436.81897245291196 337.3414778486299L436.81897245291196 442.13045576264255Q436.81897245291196 463.3773243879665 424.0708512777176 475.34494834835306Q411.3227301025233 487.34147961299175 390.07586147719934 487.34147961299175L390.07586147719934 487.34147961299175Q368.0195883328154 487.34147961299175 355.7339840256553 476.06763095465664Q343.41947241424305 464.79378229632147 343.41947241424305 444.471947407066L343.41947241424305 444.471947407066L362.9319027844385 444.471947407066Q362.9319027844385 457.1622539737561 369.8985631092046 464.2734508197829Q376.8652234339707 471.3846476658097 390.07586147719934 471.3846476658097L390.07586147719934 471.3846476658097Q402.1591146545944 471.3846476658097 409.64610645589903 463.7820266474965Q417.10419095295157 456.1504983249311 417.2198201699601 442.41952880516396L417.2198201699601 442.41952880516396Z " fill="#e2d3f4" transform="matrix(0.5594025951216549,0,0,0.5594025951216548,0,69.33507212546142)"/><path d="M678.9766246523606 485.4219146952201L640.1192211723943 485.4219146952201L640.1192211723943 345.0471451723216L679.744449138909 345.0471451723216Q698.0625476037061 345.0471451723216 712.130189089396 353.1641468872616Q726.225252878177 361.2537262991106 733.8760754405698 376.198881483713Q741.5543203060536 391.14403666831544 741.6365872153266 410.504182650571L741.6365872153266 410.504182650571L741.6365872153266 419.4712757613325Q741.6365872153266 439.3524455023173 733.9857646529339 454.2701783838287Q726.30751978745 469.2153335684311 712.102766786305 477.2226460710071Q697.870591482069 485.229958573583 678.9766246523606 485.4219146952201L678.9766246523606 485.4219146952201ZM680.2380505945472 360.29394569092517L658.6292757588285 360.29394569092517L658.6292757588285 470.2848033889806L678.0991109534481 470.2848033889806Q699.5159296675298 470.2848033889806 711.4172092090297 456.98498638983904Q723.3184887505296 443.68516939069747 723.3184887505296 419.0873635180583L723.3184887505296 419.0873635180583L723.3184887505296 410.8880948938452Q723.3184887505296 387.00326890157237 712.102766786305 373.7308742055218Q700.8596225189895 360.48590181256225 680.2380505945472 360.29394569092517L680.2380505945472 360.29394569092517ZM849.8998398186483 485.4219146952201L831.197829110577 485.4219146952201Q829.6621801374802 482.3231944459356 828.7023995292948 474.4255711557237L828.7023995292948 474.4255711557237Q816.2526739259746 487.3414759115911 799.004045281727 487.3414759115911L799.004045281727 487.3414759115911Q783.5652886414864 487.3414759115911 773.6932595287215 478.62118352864877Q763.8212304159566 469.90089114570645 763.8212304159566 456.49138493420077L763.8212304159566 456.49138493420077Q763.8212304159566 440.20253689813876 776.1886891100038 431.18059918119525Q788.5835701071419 422.18608376734284 811.042436338682 422.18608376734284L811.042436338682 422.18608376734284L828.4007541952935 422.18608376734284L828.4007541952935 413.9868151431297Q828.4007541952935 404.63580978909414 822.8066043647268 399.0965045647094Q817.2124545341601 393.55719934032464 806.3258002070277 393.55719934032464L806.3258002070277 393.55719934032464Q796.7828387313549 393.55719934032464 790.3111752018758 398.356102381252Q783.8669339754875 403.18242772527043 783.8669339754875 410.0380034980238L783.8669339754875 410.0380034980238L765.9327477539647 410.0380034980238Q765.9327477539647 402.22264711708493 771.4720529783494 394.9557367979663Q777.0113582027342 387.6614041757567 786.5268973753159 383.4109471966496Q796.0150142448066 379.1879125206335 807.3952700275772 379.1879125206335L807.3952700275772 379.1879125206335Q825.4117231583732 379.1879125206335 835.6402422113212 388.18242793448593Q845.8413389611783 397.20436565142944 846.2526735075435 413.0270345349443L846.2526735075435 413.0270345349443L846.2526735075435 461.0434872473091Q846.2526735075435 475.38535176390917 849.8998398186483 483.88626572212337L849.8998398186483 483.88626572212337L849.8998398186483 485.4219146952201ZM801.6091640753733 471.8204523620774L801.6091640753733 471.8204523620774Q810.0003888212235 471.8204523620774 817.5140998681612 467.48772847369725Q825.0278109150989 463.1550045853171 828.4007541952935 456.2171619032907L828.4007541952935 456.2171619032907L828.4007541952935 434.80034318920906L814.4153796188767 434.80034318920906Q781.6457274251154 434.80034318920906 781.6457274251154 453.99595535291854L781.6457274251154 453.99595535291854Q781.6457274251154 462.38718009876874 787.2398772556822 467.1038162304231Q792.834027086249 471.8204523620774 801.6091640753733 471.8204523620774ZM934.9364017038814 457.7528108763874L934.9364017038814 457.7528108763874Q934.9364017038814 450.51332286035984 929.4793633887697 446.50966660907187Q924.049747376749 442.5334326608749 910.5031296497883 439.6266685332275Q896.9565119228275 436.747326708671 889.0040440264336 432.688825851201Q881.0515761300397 428.630324993731 877.2398760003888 423.0361751631642Q873.428175870738 417.44202533259744 873.428175870738 409.73635816402265L873.428175870738 409.73635816402265Q873.428175870738 396.9301426205193 884.2599855916883 388.0453164190309Q895.1192176157297 379.1879125206335 911.983934016703 379.1879125206335L911.983934016703 379.1879125206335Q929.7261641165887 379.1879125206335 940.7773522622672 388.346961753032Q951.8011181048547 397.5060109854306 951.8011181048547 411.76560859275764L951.8011181048547 411.76560859275764L933.8669318833319 411.76560859275764Q933.8669318833319 404.443853667457 927.6420690816717 399.15134917089136Q921.4446285831027 393.83142237123474 911.983934016703 393.83142237123474L911.983934016703 393.83142237123474Q902.2490164193932 393.83142237123474 896.7645558011905 398.08187935034186Q891.2526728798967 402.332336329449 891.2526728798967 409.16048979911136L891.2526728798967 409.16048979911136Q891.2526728798967 415.63215332859056 896.3806435579163 418.89540739642115Q901.4811919328448 422.18608376734284 914.8358535381684 425.1751148042633Q928.190515143492 428.16414584118377 936.4720506769781 432.3049136079268Q944.7810085135552 436.44568137466985 948.7572424617522 442.28663193305573Q952.7608987130402 448.1001601883506 952.7608987130402 456.49138493420077L952.7608987130402 456.49138493420077Q952.7608987130402 470.4767595106177 941.6000213549977 478.9228288626499Q930.4117216938641 487.3414759115911 912.5598023816143 487.3414759115911L912.5598023816143 487.3414759115911Q900.0278098690211 487.3414759115911 890.4025814840753 482.9264851139379Q880.7499307960386 478.4840720131937 875.3203147840178 470.53160411679977Q869.8632764689062 462.5791362204058 869.8632764689062 453.31039777564325L869.8632764689062 453.31039777564325L887.687773478065 453.31039777564325Q888.1813749337032 462.2774908864047 894.8724168879105 467.5425730798793Q901.5908811452089 472.78023297026283 912.5598023816143 472.78023297026283L912.5598023816143 472.78023297026283Q922.6786322221983 472.78023297026283 928.8212281145854 468.69430980970185Q934.9364017038814 464.6083866491408 934.9364017038814 457.7528108763874ZM993.8395087433786 337.3414780037468L993.8395087433786 393.7491554619617Q1005.6859436786965 379.1879125206335 1024.689599720769 379.1879125206335L1024.689599720769 379.1879125206335Q1057.760897248531 379.1879125206335 1058.0351202794413 416.482244724412L1058.0351202794413 416.482244724412L1058.0351202794413 485.4219146952201L1040.2106232702827 485.4219146952201L1040.2106232702827 416.3999778151389Q1040.1009340579185 405.1019889416413 1035.055230289172 399.7272175358027Q1029.9821042173344 394.325023826873 1019.2874060118393 394.325023826873L1019.2874060118393 394.325023826873Q1010.6219582350789 394.325023826873 1004.0680277963266 398.9319707461633Q997.5140973575744 403.5663399685446 993.8395087433786 411.0800510154823L993.8395087433786 411.0800510154823L993.8395087433786 485.4219146952201L976.0150117342198 485.4219146952201L976.0150117342198 337.3414780037468L993.8395087433786 337.3414780037468ZM1173.0716817462435 432.8807819728381L1173.0716817462435 434.41643094593485Q1173.0716817462435 458.3286792412987 1162.075338206747 472.8350775764449Q1151.0789946672503 487.3414759115911 1132.5689400808164 487.3414759115911L1132.5689400808164 487.3414759115911Q1112.7974595521955 487.3414759115911 1102.0204944374273 473.38352363826516L1102.0204944374273 473.38352363826516L1101.1429807385148 485.4219146952201L1084.7444434900885 485.4219146952201L1084.7444434900885 337.3414780037468L1102.5963628023383 337.3414780037468L1102.5963628023383 392.5699964290481Q1113.3733279171065 379.1879125206335 1132.3769839591791 379.1879125206335Q1151.3806400012513 379.1879125206335 1162.212449722202 393.55719934032464Q1173.0716817462435 407.8990638569247 1173.0716817462435 432.8807819728381L1173.0716817462435 432.8807819728381ZM1155.2197624339933 432.38718051719985L1155.2197624339933 432.38718051719985Q1155.2197624339933 414.17877126476685 1148.1722305396029 404.25189754581993Q1141.1521209483035 394.325023826873 1127.934570858435 394.325023826873L1127.934570858435 394.325023826873Q1110.3020299709133 394.325023826873 1102.5963628023383 410.69613877220814L1102.5963628023383 410.69613877220814L1102.5963628023383 455.83324966001646Q1110.7682091234606 472.2043646053516 1128.126526980072 472.2043646053516L1128.126526980072 472.2043646053516Q1140.9601648266662 472.2043646053516 1148.0899636303297 462.2774908864047Q1155.2197624339933 452.35061716745776 1155.2197624339933 432.38718051719985ZM1190.786489543038 433.56633955011347L1190.786489543038 432.3049136079268Q1190.786489543038 416.9758461800502 1196.8193962230612 404.71807669836716Q1202.852302903084 392.4877295197751 1213.601845714761 385.8241098686588Q1224.3513885264388 379.1879125206335 1238.1448069812186 379.1879125206335L1238.1448069812186 379.1879125206335Q1259.4519364829362 379.1879125206335 1272.5872196635314 393.9411115835988Q1285.7499251472182 408.69431064656413 1285.7499251472182 433.18242730683926L1285.7499251472182 433.18242730683926L1285.7499251472182 434.41643094593485Q1285.7499251472182 449.6632314645384 1279.9363968919233 461.7564671276754Q1274.095446333537 473.8497027908124 1263.236214309496 480.59558935120174Q1252.4044045885457 487.3414759115911 1238.3367631028555 487.3414759115911L1238.3367631028555 487.3414759115911Q1217.111900510411 487.3414759115911 1203.9491950267247 472.58827684862575Q1190.786489543038 457.86250008875146 1190.786489543038 433.56633955011347L1190.786489543038 433.56633955011347ZM1208.7206757645608 434.41643094593485L1208.7206757645608 434.41643094593485Q1208.7206757645608 451.77474880254647 1216.782832873319 462.2774908864047Q1224.817567678986 472.78023297026283 1238.3367631028555 472.78023297026283L1238.3367631028555 472.78023297026283Q1251.9108031329074 472.78023297026283 1259.918115635483 462.1403793709496Q1267.925428138059 451.47310346854533 1267.925428138059 432.3049136079268L1267.925428138059 432.3049136079268Q1267.925428138059 415.1385518729523 1259.7810041200282 404.49869827363904Q1251.636580101997 393.83142237123474 1238.1448069812186 393.83142237123474L1238.1448069812186 393.83142237123474Q1224.9272568913498 393.83142237123474 1216.837677479501 404.33416445509295Q1208.7206757645608 414.8643288420422 1208.7206757645608 434.41643094593485ZM1391.2161028352562 485.4219146952201L1372.514092127185 485.4219146952201Q1370.978443154088 482.3231944459356 1370.0186625459028 474.4255711557237L1370.0186625459028 474.4255711557237Q1357.5689369425827 487.3414759115911 1340.320308298335 487.3414759115911L1340.320308298335 487.3414759115911Q1324.9089739611854 487.3414759115911 1315.0095225453297 478.62118352864877Q1305.1374934325645 469.90089114570645 1305.1374934325645 456.49138493420077L1305.1374934325645 456.49138493420077Q1305.1374934325645 440.20253689813876 1317.5323744297025 431.18059918119525Q1329.8998331237499 422.18608376734284 1352.386121658381 422.18608376734284L1352.386121658381 422.18608376734284L1369.7170172119017 422.18608376734284L1369.7170172119017 413.9868151431297Q1369.7170172119017 404.63580978909414 1364.1228673813348 399.0965045647094Q1358.5561398538593 393.55719934032464 1347.6420632236354 393.55719934032464L1347.6420632236354 393.55719934032464Q1338.0991017479628 393.55719934032464 1331.6548605215748 398.356102381252Q1325.1831969920954 403.18242772527043 1325.1831969920954 410.0380034980238L1325.1831969920954 410.0380034980238L1307.2490107705726 410.0380034980238Q1307.2490107705726 402.22264711708493 1312.7883159949574 394.9557367979663Q1318.3550435224333 387.6614041757567 1327.843160391924 383.4109471966496Q1337.3312772614145 379.1879125206335 1348.7115330441852 379.1879125206335L1348.7115330441852 379.1879125206335Q1366.7279861749812 379.1879125206335 1376.956505227929 388.18242793448593Q1387.1850242808773 397.20436565142944 1387.5689365241515 413.0270345349443L1387.5689365241515 413.0270345349443L1387.5689365241515 461.0434872473091Q1387.5689365241515 475.38535176390917 1391.2161028352562 483.88626572212337L1391.2161028352562 483.88626572212337L1391.2161028352562 485.4219146952201ZM1342.9254270919814 471.8204523620774L1342.9254270919814 471.8204523620774Q1351.3166518378316 471.8204523620774 1358.8303628847689 467.48772847369725Q1366.344073931707 463.1550045853171 1369.7170172119017 456.2171619032907L1369.7170172119017 456.2171619032907L1369.7170172119017 434.80034318920906L1355.7590649385756 434.80034318920906Q1322.9619904417236 434.80034318920906 1322.9619904417236 453.99595535291854L1322.9619904417236 453.99595535291854Q1322.9619904417236 462.38718009876874 1328.5561402722901 467.1038162304231Q1334.150290102857 471.8204523620774 1342.9254270919814 471.8204523620774ZM1465.941878758268 380.53160537209317L1465.941878758268 397.12209874215637Q1461.8833779007982 396.436541164881 1457.1667417691438 396.436541164881L1457.1667417691438 396.436541164881Q1439.6164677908955 396.436541164881 1433.364182686144 411.38169634948343L1433.364182686144 411.38169634948343L1433.364182686144 485.4219146952201L1415.5122633738943 485.4219146952201L1415.5122633738943 381.10747373700445L1432.8705812305056 381.10747373700445L1433.1722265645071 393.17328709705043Q1441.9473635536315 379.1879125206335 1458.0442554680562 379.1879125206335L1458.0442554680562 379.1879125206335Q1463.254493055349 379.1879125206335 1465.941878758268 380.53160537209317L1465.941878758268 380.53160537209317ZM1476.1703978112164 433.75829567175055L1476.1703978112164 432.38718051719985Q1476.1703978112164 408.392665312563 1487.523231290896 393.7765777650527Q1498.9034870736664 379.1879125206335 1517.3312747508276 379.1879125206335L1517.3312747508276 379.1879125206335Q1535.6493732156246 379.1879125206335 1546.3440714211201 391.7199050332267L1546.3440714211201 391.7199050332267L1546.3440714211201 337.3414780037468L1564.1685684302788 337.3414780037468L1564.1685684302788 485.4219146952201L1547.7974534849436 485.4219146952201L1546.9199397860316 474.2336150340866Q1536.225241580536 487.3414759115911 1517.1393186291907 487.3414759115911L1517.1393186291907 487.3414759115911Q1499.0131762860306 487.3414759115911 1487.5780758970782 472.50600993935274Q1476.1703978112164 457.64312166402334 1476.1703978112164 433.75829567175055L1476.1703978112164 433.75829567175055ZM1493.994894820375 434.41643094593485L1493.994894820375 434.41643094593485Q1493.994894820375 452.1586610458207 1501.316649745676 462.1952239771316Q1508.6384046709763 472.2043646053516 1521.5817317299347 472.2043646053516L1521.5817317299347 472.2043646053516Q1538.5287150401814 472.2043646053516 1546.3440714211201 456.98498638983904L1546.3440714211201 456.98498638983904L1546.3440714211201 409.0782228898383Q1538.336758918544 394.325023826873 1521.7736878515716 394.325023826873L1521.7736878515716 394.325023826873Q1508.6384046709763 394.325023826873 1501.316649745676 404.443853667457Q1493.994894820375 414.56268350804106 1493.994894820375 434.41643094593485Z " fill="#013dc4" transform="matrix(0.5594025951216549,0,0,0.5594025951216548,0,69.33507212546142)"/></g></svg>